<?xml version="1.0" standalone="no"?>
<!DOCTYPE svg PUBLIC "-//W3C//DTD SVG 20010904//EN"
 "http://www.w3.org/TR/2001/REC-SVG-20010904/DTD/svg10.dtd">
<svg version="1.0" xmlns="http://www.w3.org/2000/svg"
 width="409.000000pt" height="502.000000pt" viewBox="0 0 409.000000 502.000000"
 preserveAspectRatio="xMidYMid meet">

<g transform="translate(0.000000,502.000000) scale(0.100000,-0.100000)"
fill="#000000" stroke="none">
<path d="M1982 4974 c-215 -57 -411 -254 -502 -503 -83 -228 -75 -458 21 -574
33 -40 83 -72 100 -62 21 13 79 147 128 292 118 355 233 580 380 746 52 59 65
99 35 111 -26 10 -106 5 -162 -10z"/>
<path d="M2262 4907 c-40 -63 -71 -144 -107 -277 -68 -251 -137 -389 -328
-650 -108 -147 -125 -188 -95 -218 29 -29 174 -3 291 52 161 77 283 200 368
371 59 121 88 228 96 356 12 202 -63 373 -175 395 -25 5 -32 1 -50 -29z"/>
<path d="M2043 3505 c-159 -90 -254 -247 -240 -398 5 -60 13 -77 118 -277 41
-77 47 -141 20 -228 -12 -40 -37 -91 -57 -117 l-35 -47 42 23 c59 34 137 123
173 199 28 59 31 74 31 165 0 98 -1 101 -39 170 -88 156 -91 163 -91 255 0 99
22 156 89 228 21 23 37 44 35 47 -3 2 -24 -7 -46 -20z"/>
<path d="M1535 2793 c-103 -6 -314 -35 -429 -59 -285 -58 -424 -122 -500 -233
l-29 -41 6 -158 c9 -246 61 -506 152 -757 62 -170 91 -229 173 -355 90 -138
168 -227 266 -306 201 -160 443 -237 751 -237 228 0 402 36 566 119 136 68
295 209 402 355 38 52 46 59 87 64 375 54 661 182 865 389 111 112 159 200
177 325 35 236 -82 405 -305 444 -111 19 -251 -23 -381 -112 -25 -17 -49 -31
-54 -31 -6 0 -6 17 -1 43 12 62 11 194 -2 238 -18 57 -61 102 -136 141 -171
89 -460 151 -810 174 l-103 7 0 -31 c0 -17 -2 -37 -6 -45 -4 -11 14 -15 93
-21 468 -32 806 -129 843 -240 57 -175 -433 -318 -1141 -333 -556 -12 -1055
64 -1234 187 -124 85 -91 182 85 249 185 72 569 133 900 143 l85 3 3 43 3 42
-138 -2 c-76 -1 -160 -3 -188 -5z m2176 -656 c47 -19 104 -87 119 -143 18 -62
8 -171 -20 -229 -53 -110 -255 -274 -426 -345 -113 -47 -352 -94 -341 -67 3 6
23 57 45 112 58 147 100 275 132 408 16 66 36 128 47 139 26 29 127 96 180
120 85 37 182 39 264 5z"/>
<path d="M1350 2460 c-168 -25 -294 -50 -310 -60 -37 -23 10 -19 127 9 71 17
183 40 249 50 65 10 103 19 84 19 -19 0 -87 -8 -150 -18z"/>
<path d="M610 1114 c-218 -46 -406 -147 -464 -247 -57 -99 -44 -162 55 -259
59 -58 89 -78 211 -137 278 -135 655 -235 1088 -287 182 -22 695 -26 870 -6
475 55 950 194 1179 346 115 77 181 163 181 236 0 69 -74 162 -174 219 -56 32
-207 85 -271 95 -35 5 -29 1 45 -37 193 -96 277 -191 254 -284 -14 -53 -119
-143 -236 -201 -433 -214 -1161 -312 -1831 -246 -516 51 -1000 193 -1169 344
-83 74 -108 143 -73 209 40 78 201 184 353 232 39 13 72 27 72 31 0 10 -11 9
-90 -8z"/>
<path d="M1140 641 c88 -77 242 -135 455 -172 105 -18 168 -23 330 -23 224 0
348 13 512 54 113 29 276 99 323 140 28 24 28 25 -90 -24 -284 -116 -815 -147
-1200 -70 -108 22 -235 62 -305 96 l-60 29 35 -30z"/>
</g>
</svg>
