<?xml version="1.0" standalone="no"?>
<!DOCTYPE svg PUBLIC "-//W3C//DTD SVG 20010904//EN"
 "http://www.w3.org/TR/2001/REC-SVG-20010904/DTD/svg10.dtd">
<svg version="1.0" xmlns="http://www.w3.org/2000/svg"
 width="736.000000pt" height="191.000000pt" viewBox="0 0 736.000000 191.000000"
 preserveAspectRatio="xMidYMid meet">

<g transform="translate(0.000000,191.000000) scale(0.100000,-0.100000)"
fill="#000000" stroke="none">
<path fill="#D6C0B3" d="M1205 1836 c-85 -27 -152 -70 -231 -150 -121 -121 -144 -165 -351
-666 -89 -216 -179 -384 -201 -375 -8 3 -48 10 -88 16 -90 14 -177 1 -239 -36
-54 -31 -90 -99 -81 -149 29 -154 247 -160 429 -12 l57 46 248 -120 c478 -234
593 -257 789 -160 60 29 87 49 98 70 19 36 9 38 -48 8 -27 -14 -68 -23 -114
-26 -138 -9 -274 32 -603 183 -124 57 -242 110 -262 118 -21 9 -38 18 -38 21
0 3 20 36 44 73 61 95 87 149 187 390 156 375 248 544 343 631 76 70 165 100
216 72 10 -5 24 -25 30 -44 25 -78 -79 -273 -220 -410 -44 -43 -80 -80 -80
-82 0 -11 82 32 157 82 140 93 223 220 231 354 3 66 1 79 -20 109 -34 49 -81
71 -153 70 -33 0 -78 -6 -100 -13z m-885 -1276 c14 0 32 -5 40 -10 35 -22
-108 -120 -177 -120 -37 0 -73 29 -73 60 0 26 32 58 67 66 16 3 33 7 38 10 6
2 26 1 45 -1 19 -3 46 -5 60 -5z"/>
<path fill="#D6C0B3" d="M5018 1831 c-80 -26 -140 -63 -207 -129 -112 -111 -167 -211 -307
-561 -101 -251 -170 -400 -230 -494 -33 -53 -39 -58 -63 -53 -14 4 -62 9 -107
12 -147 12 -259 -43 -271 -132 -12 -88 63 -151 165 -141 62 7 177 58 237 106
28 23 46 31 62 26 13 -3 128 -53 256 -111 340 -155 464 -197 622 -211 82 -7
156 7 225 43 54 27 103 71 97 87 -5 14 -3 14 -77 -13 -138 -49 -271 -18 -750
175 -140 57 -267 107 -282 110 -16 4 -28 10 -28 13 0 3 23 41 51 85 70 108
131 233 240 487 50 118 109 251 131 295 84 167 185 298 260 336 40 20 118 25
148 9 42 -23 28 -129 -33 -244 -44 -85 -173 -212 -259 -256 -74 -38 -86 -52
-35 -40 136 31 339 190 402 316 55 109 43 226 -28 278 -39 29 -143 32 -219 7z
m-884 -1317 c27 -4 45 -11 43 -18 -6 -19 -84 -73 -131 -91 -88 -34 -162 8
-122 69 26 40 102 54 210 40z"/>
<path fill="#D6C0B3" d="M6167 1526 c-20 -8 -43 -19 -50 -25 -8 -6 -40 -76 -73 -156 l-59
-145 -71 0 c-53 0 -73 -4 -77 -14 -9 -22 17 -37 73 -45 l50 -6 -81 -180 c-107
-235 -206 -368 -306 -411 -41 -18 -48 -18 -67 2 -34 33 -15 120 59 279 95 204
144 318 139 326 -11 18 -91 9 -119 -13 -23 -18 -30 -19 -33 -8 -3 8 -18 28
-34 44 -28 27 -32 28 -102 24 -94 -6 -158 -40 -251 -133 -175 -174 -268 -414
-207 -535 59 -118 200 -99 347 47 l63 64 -5 -38 c-7 -53 17 -108 58 -128 65
-34 159 1 265 98 l64 59 0 -36 c0 -53 24 -103 62 -126 70 -44 194 1 316 116
37 35 68 64 68 64 1 0 -1 -20 -3 -44 -15 -132 84 -192 217 -130 64 30 129 79
187 143 39 42 43 44 43 22 0 -48 25 -106 61 -142 97 -97 277 -63 450 85 76 64
173 180 166 199 -8 24 -25 14 -72 -44 -64 -79 -164 -162 -239 -199 -127 -64
-226 -18 -226 106 0 27 6 57 13 66 6 9 54 25 106 37 160 36 276 116 326 224
47 99 23 196 -55 224 -153 55 -428 -155 -500 -382 -22 -69 -167 -237 -235
-272 -39 -21 -86 -19 -102 3 -32 43 -18 89 116 390 l87 197 103 2 c109 3 134
12 115 43 -9 13 -29 18 -98 20 -47 1 -86 4 -86 6 0 2 31 73 69 157 37 85 66
158 63 163 -6 11 -86 0 -120 -18 -22 -11 -39 -41 -81 -138 -80 -186 -56 -168
-226 -168 -113 0 -145 3 -145 13 0 7 27 80 60 162 33 82 60 152 60 157 0 12
-40 9 -83 -6z m-673 -402 c41 -40 25 -118 -54 -270 -83 -160 -169 -268 -243
-306 -107 -54 -135 46 -67 233 37 102 90 189 160 263 80 85 166 119 204 80z
m845 -121 c-73 -170 -133 -266 -223 -361 -75 -78 -127 -112 -174 -112 -84 0
-72 80 53 370 54 124 103 228 109 232 6 4 75 8 153 8 l142 0 -60 -137z m779
115 c7 -7 12 -35 12 -62 0 -125 -132 -251 -293 -281 -49 -9 -48 1 8 114 85
168 220 282 273 229z"/>
<path fill="#D6C0B3" d="M2544 1196 c-73 -23 -162 -97 -242 -200 -12 -16 -24 -27 -27 -24 -3
2 13 49 35 103 22 53 37 101 34 106 -3 5 -31 9 -63 9 l-57 0 -42 -93 c-22 -51
-59 -140 -82 -197 -22 -57 -51 -121 -65 -141 -34 -52 -142 -167 -189 -201 -74
-54 -124 -29 -111 55 7 40 118 308 192 462 48 102 47 107 -33 103 l-65 -3 -83
-188 c-46 -103 -99 -213 -117 -244 -41 -68 -132 -169 -170 -189 -67 -34 -126
-4 -116 59 5 30 79 213 187 459 37 83 38 88 20 98 -10 5 -41 10 -68 10 l-49 0
-43 -97 c-23 -54 -74 -167 -112 -251 -38 -85 -73 -175 -78 -200 -17 -93 17
-173 79 -185 75 -15 202 43 280 129 23 24 43 44 44 44 1 0 2 -17 2 -37 1 -164
155 -173 319 -19 27 25 51 44 53 42 2 -2 -8 -30 -22 -62 -15 -33 -22 -61 -17
-66 5 -5 36 -8 68 -6 l59 3 30 60 c17 33 48 101 70 150 55 126 159 278 248
362 76 72 118 93 143 72 26 -22 14 -71 -52 -210 -81 -174 -104 -239 -104 -301
0 -89 43 -141 118 -142 67 -1 116 27 200 111 l72 73 0 -35 c0 -19 7 -53 16
-75 51 -126 217 -109 362 38 l63 65 -6 -36 c-4 -20 -2 -51 5 -71 36 -111 166
-100 290 24 51 51 150 179 150 194 0 3 -8 6 -19 6 -11 0 -36 -22 -59 -52 -84
-109 -161 -178 -198 -178 -25 0 -44 31 -44 73 0 45 22 100 145 371 42 92 74
175 70 183 -7 21 -89 12 -116 -13 -20 -18 -21 -17 -44 13 -34 42 -74 57 -144
50 -65 -5 -110 -26 -195 -88 -99 -74 -187 -197 -268 -375 -22 -47 -135 -168
-181 -193 l-48 -26 -20 24 c-30 37 -19 80 78 296 102 226 108 245 93 290 -20
60 -97 87 -176 61z m803 -72 c40 -40 29 -114 -37 -245 -67 -133 -106 -191
-172 -258 -211 -213 -286 15 -101 303 79 122 200 225 266 226 10 0 30 -12 44
-26z"/>
</g>
</svg>
